HIERARCHY
ROOT hips
{
	OFFSET 0.000000 104.274902 0.000000
	CHANNELS 6 Xposition Yposition Zposition Xrotation Yrotation Zrotation
	JOINT spine
	{
		OFFSET 0.000000 10.181549 0.131524
		CHANNELS 6 Xposition Yposition Zposition Xrotation Yrotation Zrotation
		JOINT chest
		{
			OFFSET 0.000000 9.893990 -1.470706
			CHANNELS 3 Xrotation Yrotation Zrotation
			JOINT upperChest
			{
				OFFSET 0.000000 9.220787 -1.370637
				CHANNELS 3 Xrotation Yrotation Zrotation
				JOINT neck
				{
					OFFSET 0.000000 16.740372 -2.049022
					CHANNELS 6 Xposition Yposition Zposition Xrotation Yrotation Zrotation
					JOINT head
					{
						OFFSET 0.000000 9.617859 1.684976
						CHANNELS 6 Xposition Yposition Zposition Xrotation Yrotation Zrotation
						JOINT headEnd
						{
							OFFSET 0.000000 22.037384 7.501072
							CHANNELS 6 Xposition Yposition Zposition Xrotation Yrotation Zrotation
							End Site
							{
								OFFSET 0.000000 23.106567 -2.828246
							}
						}
					}
				}
				JOINT rightShoulder
				{
					OFFSET -4.570000 11.014877 -2.160840
					CHANNELS 6 Xposition Yposition Zposition Xrotation Yrotation Zrotation
					JOINT rightUpperArm
					{
						OFFSET -10.592867 -0.524796 -2.232105
						CHANNELS 3 Xrotation Yrotation Zrotation
						JOINT rightLowerArm
						{
							OFFSET -27.841497 0.000000 -0.000002
							CHANNELS 3 Xrotation Yrotation Zrotation
							JOINT rightHand
							{
								OFFSET -28.328812 0.000000 -0.000001
								CHANNELS 3 Xrotation Yrotation Zrotation
								JOINT rightThumbProximal
								{
									OFFSET -2.464798 -1.573990 2.681911
									CHANNELS 6 Xposition Yposition Zposition Xrotation Yrotation Zrotation
									JOINT rightThumbIntermediate
									{
										OFFSET -3.244781 -1.873383 1.873376
										CHANNELS 3 Xrotation Yrotation Zrotation
										JOINT rightThumbDistal
										{
											OFFSET -2.646263 -1.527817 1.527818
											CHANNELS 6 Xposition Yposition Zposition Xrotation Yrotation Zrotation
											JOINT rightHandThumb4
											{
												OFFSET -1.994591 -1.151581 1.151575
												CHANNELS 6 Xposition Yposition Zposition Xrotation Yrotation Zrotation
												End Site
												{
													OFFSET -1.860176 -1.142715 1.365483
												}
											}
										}
									}
								}
								JOINT rightIndexProximal
								{
									OFFSET -9.108299 -0.517883 2.259803
									CHANNELS 6 Xposition Yposition Zposition Xrotation Yrotation Zrotation
									JOINT rightIndexIntermediate
									{
										OFFSET -3.699997 0.000000 0.000000
										CHANNELS 3 Xrotation Yrotation Zrotation
										JOINT rightIndexDistal
										{
											OFFSET -2.850006 0.000000 0.000000
											CHANNELS 3 Xrotation Yrotation Zrotation
											JOINT rightHandIndex4
											{
												OFFSET -2.772194 0.000000 0.000000
												CHANNELS 3 Xrotation Yrotation Zrotation
												End Site
												{
													OFFSET -2.772202 0.000000 -0.000484
												}
											}
										}
									}
								}
								JOINT rightMiddleProximal
								{
									OFFSET -9.532501 0.000000 -0.000000
									CHANNELS 6 Xposition Yposition Zposition Xrotation Yrotation Zrotation
									JOINT rightMiddleIntermediate
									{
										OFFSET -3.699997 0.000000 0.000000
										CHANNELS 3 Xrotation Yrotation Zrotation
										JOINT rightMiddleDistal
										{
											OFFSET -2.949997 0.000000 0.000000
											CHANNELS 3 Xrotation Yrotation Zrotation
											JOINT rightHandMiddle4
											{
												OFFSET -2.946594 0.000000 0.000000
												CHANNELS 3 Xrotation Yrotation Zrotation
												End Site
												{
													OFFSET -2.946602 0.000000 -0.000982
												}
											}
										}
									}
								}
								JOINT rightRingProximal
								{
									OFFSET -9.103600 -0.043106 -1.865100
									CHANNELS 6 Xposition Yposition Zposition Xrotation Yrotation Zrotation
									JOINT rightRingIntermediate
									{
										OFFSET -3.379303 0.000000 0.000000
										CHANNELS 3 Xrotation Yrotation Zrotation
										JOINT rightRingDistal
										{
											OFFSET -2.889694 0.000000 0.000000
											CHANNELS 3 Xrotation Yrotation Zrotation
											JOINT rightHandRing4
											{
												OFFSET -2.638802 0.000000 0.000000
												CHANNELS 3 Xrotation Yrotation Zrotation
												End Site
												{
													OFFSET -2.638802 0.000000 0.004218
												}
											}
										}
									}
								}
								JOINT rightLittleProximal
								{
									OFFSET -8.076698 -0.486725 -3.806299
									CHANNELS 6 Xposition Yposition Zposition Xrotation Yrotation Zrotation
									JOINT rightLittleIntermediate
									{
										OFFSET -3.600006 0.000000 0.000000
										CHANNELS 3 Xrotation Yrotation Zrotation
										JOINT rightLittleDistal
										{
											OFFSET -2.099998 0.000000 0.000000
											CHANNELS 3 Xrotation Yrotation Zrotation
											JOINT rightHandPinky4
											{
												OFFSET -2.115791 0.000000 0.000000
												CHANNELS 3 Xrotation Yrotation Zrotation
												End Site
												{
													OFFSET -2.115799 0.000000 0.000174
												}
											}
										}
									}
								}
							}
						}
					}
				}
				JOINT leftShoulder
				{
					OFFSET 4.570400 11.014679 -2.160816
					CHANNELS 6 Xposition Yposition Zposition Xrotation Yrotation Zrotation
					JOINT leftUpperArm
					{
						OFFSET 10.592373 -0.524597 -2.232116
						CHANNELS 3 Xrotation Yrotation Zrotation
						JOINT leftLowerArm
						{
							OFFSET 27.841488 0.000000 0.000001
							CHANNELS 3 Xrotation Yrotation Zrotation
							JOINT leftHand
							{
								OFFSET 28.328808 0.000000 -0.000000
								CHANNELS 3 Xrotation Yrotation Zrotation
								JOINT leftThumbProximal
								{
									OFFSET 2.466103 -1.576202 2.681698
									CHANNELS 6 Xposition Yposition Zposition Xrotation Yrotation Zrotation
									JOINT leftThumbIntermediate
									{
										OFFSET 3.243317 -1.872528 1.872530
										CHANNELS 3 Xrotation Yrotation Zrotation
										JOINT leftThumbDistal
										{
											OFFSET 2.647881 -1.528763 1.528754
											CHANNELS 6 Xposition Yposition Zposition Xrotation Yrotation Zrotation
											JOINT leftHandThumb4
											{
												OFFSET 1.998924 -1.154083 1.154080
												CHANNELS 6 Xposition Yposition Zposition Xrotation Yrotation Zrotation
												End Site
												{
													OFFSET 1.884041 -1.149155 1.337651
												}
											}
										}
									}
								}
								JOINT leftIndexProximal
								{
									OFFSET 9.109299 -0.518005 2.259900
									CHANNELS 6 Xposition Yposition Zposition Xrotation Yrotation Zrotation
									JOINT leftIndexIntermediate
									{
										OFFSET 3.699997 0.000000 0.000000
										CHANNELS 3 Xrotation Yrotation Zrotation
										JOINT leftIndexDistal
										{
											OFFSET 2.850006 0.000000 0.000000
											CHANNELS 3 Xrotation Yrotation Zrotation
											JOINT leftHandIndex4
											{
												OFFSET 2.774895 0.000000 0.000000
												CHANNELS 3 Xrotation Yrotation Zrotation
												End Site
												{
													OFFSET 2.774902 0.000000 -0.000072
												}
											}
										}
									}
								}
								JOINT leftMiddleProximal
								{
									OFFSET 9.533401 0.000000 0.000000
									CHANNELS 6 Xposition Yposition Zposition Xrotation Yrotation Zrotation
									JOINT leftMiddleIntermediate
									{
										OFFSET 3.699997 0.000000 0.000000
										CHANNELS 3 Xrotation Yrotation Zrotation
										JOINT leftMiddleDistal
										{
											OFFSET 2.949997 0.000000 0.000000
											CHANNELS 3 Xrotation Yrotation Zrotation
											JOINT leftHandMiddle4
											{
												OFFSET 2.952896 0.000000 0.000000
												CHANNELS 3 Xrotation Yrotation Zrotation
												End Site
												{
													OFFSET 2.952904 0.000000 0.000165
												}
											}
										}
									}
								}
								JOINT leftRingProximal
								{
									OFFSET 9.104500 -0.042999 -1.865101
									CHANNELS 6 Xposition Yposition Zposition Xrotation Yrotation Zrotation
									JOINT leftRingIntermediate
									{
										OFFSET 3.149994 0.000000 0.000000
										CHANNELS 3 Xrotation Yrotation Zrotation
										JOINT leftRingDistal
										{
											OFFSET 2.950005 0.000000 0.000000
											CHANNELS 3 Xrotation Yrotation Zrotation
											JOINT leftHandRing4
											{
												OFFSET 2.644302 0.000000 0.000000
												CHANNELS 3 Xrotation Yrotation Zrotation
												End Site
												{
													OFFSET 2.644302 0.000000 0.000083
												}
											}
										}
									}
								}
								JOINT leftLittleProximal
								{
									OFFSET 8.077805 -0.486893 -3.806302
									CHANNELS 6 Xposition Yposition Zposition Xrotation Yrotation Zrotation
									JOINT leftLittleIntermediate
									{
										OFFSET 3.600006 0.000000 0.000000
										CHANNELS 3 Xrotation Yrotation Zrotation
										JOINT leftLittleDistal
										{
											OFFSET 2.099998 0.000000 0.000000
											CHANNELS 3 Xrotation Yrotation Zrotation
											JOINT leftHandPinky4
											{
												OFFSET 2.125496 0.000000 0.000000
												CHANNELS 3 Xrotation Yrotation Zrotation
												End Site
												{
													OFFSET 2.125504 0.000000 -0.001254
												}
											}
										}
									}
								}
							}
						}
					}
				}
			}
		}
	}
	JOINT rightUpperLeg
	{
		OFFSET -8.207800 -6.751701 -1.599544
		CHANNELS 6 Xposition Yposition Zposition Xrotation Yrotation Zrotation
		JOINT rightLowerLeg
		{
			OFFSET 0.000004 -44.370152 0.345934
			CHANNELS 3 Xrotation Yrotation Zrotation
			JOINT rightFoot
			{
				OFFSET 0.000004 -44.423664 -3.043535
				CHANNELS 3 Xrotation Yrotation Zrotation
				JOINT rightToes
				{
					OFFSET 0.000001 -8.728691 10.710592
					CHANNELS 3 Xrotation Yrotation Zrotation
					JOINT rightToesEnd
					{
						OFFSET 0.000000 -0.000665 9.278101
						CHANNELS 3 Xrotation Yrotation Zrotation
						End Site
						{
							OFFSET 0.000000 -0.000665 9.278103
						}
					}
				}
			}
		}
	}
	JOINT leftUpperLeg
	{
		OFFSET 8.207800 -6.751701 -1.599544
		CHANNELS 6 Xposition Yposition Zposition Xrotation Yrotation Zrotation
		JOINT leftLowerLeg
		{
			OFFSET 0.000004 -44.370037 0.346940
			CHANNELS 3 Xrotation Yrotation Zrotation
			JOINT leftFoot
			{
				OFFSET 0.000004 -44.423611 -3.044388
				CHANNELS 3 Xrotation Yrotation Zrotation
				JOINT leftToes
				{
					OFFSET 0.000001 -8.728690 10.710592
					CHANNELS 3 Xrotation Yrotation Zrotation
					JOINT leftToesEnd
					{
						OFFSET 0.000000 -0.000680 9.278101
						CHANNELS 3 Xrotation Yrotation Zrotation
						End Site
						{
							OFFSET 0.000000 -0.000680 9.278101
						}
					}
				}
			}
		}
	}
}
MOTION
Frames: 4
Frame Time: 0.033333
-4.243074 88.886505 14.477472 -2.717845 24.191772 16.561238 0.000004 10.181560 0.131524 -0.525075 8.177895 0.710716 2.224842 0.791281 -12.052631 2.400593 0.834274 -12.018925 -0.000003 16.740337 -2.049019 11.217049 5.266793 -3.196104 -0.000002 9.617867 1.684980 1.602661 27.742193 -5.600311 0.000005 22.037354 7.501077 0.000001 0.000002 -0.000001 -4.570002 11.014844 -2.160838 -1.212296 -12.061768 -3.079176 -87.763751 17.588898 41.104143 0.000149 117.028584 -0.000101 14.145893 12.499968 -3.048347 -2.464796 -1.573981 2.681900 -4.077516 -16.174545 -15.131715 5.287486 -15.850489 -0.724039 -2.646281 -1.527826 1.527813 -1.273766 0.137302 -2.094871 -1.994590 -1.151583 1.151590 0.000001 -0.000006 -0.000004 -9.108286 -0.517884 2.259804 0.022182 0.556032 -4.567649 0.066608 -0.962184 7.921434 0.095808 -1.152640 9.502855 -0.000000 -0.000001 0.000002 -9.532495 0.000011 -0.000009 0.009501 -0.364377 2.991258 0.122681 -1.302899 10.756181 0.174064 -1.549119 12.821204 0.000001 0.000000 0.000001 -9.103593 -0.043107 -1.865102 0.141273 -1.397227 11.545422 0.228948 -1.772985 14.714437 0.293637 -2.003086 16.677765 -0.000001 -0.000001 -0.000000 -8.076699 -0.486726 -3.806313 0.382843 -2.279530 19.064750 0.319577 -2.087691 17.404838 0.408538 -2.352547 19.700858 -0.000002 -0.000000 0.000000 4.570397 11.014688 -2.160814 -0.178717 4.362524 1.520614 -86.880723 -12.579432 -33.410027 0.000018 -122.293308 0.000013 15.500361 4.977195 28.145896 2.466100 -1.576224 2.681696 -3.717818 17.628245 14.011607 4.535375 15.200326 1.290786 2.647877 -1.528754 1.528743 -0.579453 1.575008 2.538722 1.998914 -1.154081 1.154086 0.000001 -0.000002 -0.000002 9.109285 -0.518012 2.259904 0.000729 -0.100044 0.828976 0.000261 -0.059789 0.000039 0.000261 -0.059798 0.495534 -0.000001 0.000001 0.000000 9.533393 -0.000002 -0.000000 0.005244 0.269610 -2.234507 0.040231 0.744913 -6.185036 0.040879 0.750854 -6.234492 -0.000001 -0.000001 0.000000 9.104488 -0.043002 -1.865097 0.026096 0.600361 -4.981039 0.209275 1.688057 -14.134633 0.221302 1.735080 -14.537207 -0.000002 -0.000003 0.000002 8.077796 -0.486892 -3.806294 0.565589 4.916205 -6.942160 0.454842 -1.602055 -21.298249 0.451273 2.456182 -20.820198 -0.000002 -0.000000 -0.000000 -8.207797 -6.751694 -1.599539 -19.936731 6.329595 -12.277410 64.236877 -7.474949 -9.768040 -38.006970 -18.523231 9.559301 -1.124865 -0.000004 -0.000005 0.000000 -0.000000 0.000000 8.207803 -6.751696 -1.599545 -24.971096 2.615445 -17.240934 58.735624 -8.036225 8.657559 -31.577351 -14.812951 -2.229674 -3.466591 0.000006 0.000001 0.000000 -0.000000 0.000000 
-5.434723 87.459045 14.888750 -4.866722 24.620549 14.070897 0.000000 10.181542 0.131522 -0.512726 6.814731 1.443443 3.291357 0.592623 -10.303801 3.416757 0.609693 -10.263625 -0.000004 16.740368 -2.049023 11.103635 4.612100 -2.569176 -0.000002 9.617856 1.684978 1.932421 25.174119 -6.791921 -0.000000 22.037384 7.501067 0.000002 -0.000001 -0.000000 -4.570004 11.014887 -2.160842 -0.577019 -8.368085 -1.609321 -86.651707 19.883890 42.362025 0.000190 116.166314 -0.000130 8.368465 10.966756 -0.312760 -2.464792 -1.573982 2.681891 -4.077514 -16.174545 -15.131710 5.287494 -15.850489 -0.724041 -2.646286 -1.527791 1.527811 -1.273762 0.137304 -2.094872 -1.994597 -1.151603 1.151582 0.000003 -0.000001 -0.000000 -9.108304 -0.517864 2.259782 0.019468 0.521074 -4.279857 0.066829 -0.963703 7.933933 0.095940 -1.153382 9.509084 0.000003 0.000000 -0.000002 -9.532509 0.000010 -0.000016 0.010872 -0.389563 3.198337 0.122985 -1.304574 10.770008 0.174016 -1.548888 12.819390 0.000001 0.000001 -0.000002 -9.103607 -0.043076 -1.865122 0.144167 -1.411409 11.664332 0.228789 -1.772465 14.709892 0.293349 -2.002144 16.669727 0.000001 0.000000 0.000000 -8.076702 -0.486712 -3.806328 0.384823 -2.285287 19.114815 0.318758 -2.085025 17.381925 0.408076 -2.351225 19.689390 -0.000001 0.000000 -0.000001 4.570398 11.014692 -2.160817 -0.028956 3.782076 0.181687 -80.722960 -12.897602 -33.722153 0.000009 -123.415617 0.000009 16.448653 6.119783 21.418182 2.466109 -1.576212 2.681698 -3.717813 17.628226 14.011611 4.535371 15.200320 1.290788 2.647895 -1.528741 1.528747 -0.579454 1.575010 2.538725 1.998940 -1.154111 1.154079 0.000001 0.000003 -0.000000 9.109293 -0.518014 2.259905 0.001707 -0.153613 1.273146 0.000994 -0.117549 0.000046 0.000983 -0.117544 0.974098 0.000001 0.000002 0.000001 9.533414 0.000007 0.000006 0.002584 0.189095 -1.567011 0.034251 0.687297 -5.704813 0.035103 0.695893 -5.776340 -0.000002 0.000002 0.000000 9.104523 -0.043005 -1.865103 0.016959 0.484113 -4.014808 0.195606 1.632824 -13.662772 0.208570 1.685246 -14.110520 -0.000001 0.000001 0.000001 8.077814 -0.486899 -3.806300 0.459585 4.776639 -5.687393 0.437136 -1.647931 -20.891240 0.433941 2.410148 -20.411942 0.000001 -0.000000 0.000002 -8.207801 -6.751716 -1.599541 -19.228895 3.666428 -8.364467 66.303283 -7.654853 -9.929210 -39.848396 -18.129692 10.096180 -0.481240 -0.000009 -0.000002 0.000000 -0.000000 -0.000000 8.207798 -6.751707 -1.599547 -25.156978 0.739809 -14.576213 63.581405 -8.327875 10.066313 -34.420233 -12.007280 -2.655708 -3.035421 0.000000 -0.000001 0.000000 -0.000000 0.000000 
-6.678574 86.393112 15.347000 -7.577421 25.254116 10.480016 0.000002 10.181564 0.131524 -0.490341 5.011577 2.942828 4.827045 0.351285 -8.339571 4.905560 0.338081 -8.294924 -0.000004 16.740370 -2.049021 10.852664 3.758802 -1.562139 0.000005 9.617846 1.684980 1.845550 21.980088 -8.126816 -0.000002 22.037369 7.501079 -0.000001 -0.000002 0.000000 -4.570003 11.014886 -2.160838 -0.037780 -4.504257 0.394495 -85.287910 20.855605 42.953834 0.000173 115.251437 -0.000123 4.061373 8.691534 2.017895 -2.464791 -1.573994 2.681920 -4.077515 -16.174547 -15.131707 5.287494 -15.850489 -0.724038 -2.646247 -1.527791 1.527825 -1.273757 0.137306 -2.094872 -1.994605 -1.151569 1.151566 0.000002 -0.000001 -0.000000 -9.108311 -0.517876 2.259800 0.015315 0.462101 -3.794676 0.068040 -0.972392 8.005858 0.096662 -1.157709 9.545066 -0.000001 -0.000003 0.000002 -9.532495 -0.000013 -0.000000 0.013832 -0.439378 3.607799 0.124715 -1.313661 10.846010 0.174656 -1.551695 12.843033 0.000001 0.000001 -0.000000 -9.103601 -0.043118 -1.865103 0.152579 -1.451506 12.000659 0.230338 -1.778303 14.759506 0.293772 -2.003556 16.681979 -0.000004 0.000001 -0.000000 -8.076705 -0.486730 -3.806305 0.396399 -2.318378 19.402868 0.319201 -2.086465 17.394402 0.408327 -2.351940 19.695629 0.000001 -0.000000 0.000001 4.570399 11.014672 -2.160813 0.144856 2.459106 -0.926298 -75.019362 -10.443166 -33.447532 -0.000000 -124.104141 0.000017 19.933499 7.347398 11.586338 2.466102 -1.576206 2.681700 -3.717807 17.628221 14.011610 4.535371 15.200316 1.290783 2.647880 -1.528749 1.528749 -0.579453 1.575007 2.538724 1.998928 -1.154076 1.154066 -0.000001 -0.000001 0.000001 9.109314 -0.518016 2.259899 0.000014 0.007445 -0.061696 0.001378 -0.138130 -0.000001 0.001367 -0.138117 1.144626 0.000001 -0.000000 0.000001 9.533396 0.000010 0.000004 0.005697 0.280691 -2.326531 0.031752 0.661953 -5.493743 0.031772 0.662137 -5.495309 0.000003 -0.000002 0.000001 9.104492 -0.042994 -1.865097 0.017816 0.496003 -4.113802 0.185346 1.590068 -13.298024 0.197144 1.639147 -13.716694 0.000000 0.000001 -0.000000 8.077806 -0.486895 -3.806297 0.422556 4.726344 -5.240400 0.416756 -1.701975 -20.413243 0.414024 2.355938 -19.932521 -0.000001 -0.000000 -0.000001 -8.207800 -6.751710 -1.599540 -17.582912 0.547761 -3.730473 67.619344 -8.211959 -8.712801 -41.277756 -16.864999 8.773918 -0.647094 -0.000005 0.000003 0.000000 0.000000 0.000000 8.207802 -6.751697 -1.599544 -24.425916 -2.344134 -10.151812 67.731346 -8.914793 10.104012 -36.863757 -8.504892 -2.468385 -2.485530 -0.000003 0.000001 0.000000 0.000000 0.000000 
-7.916008 85.801254 15.813897 -10.427843 26.207154 6.490921 -0.000000 10.181537 0.131522 -0.140831 2.889338 4.324318 6.243978 0.135762 -6.110753 6.283237 0.093015 -6.071545 -0.000003 16.740372 -2.049019 10.584127 2.749539 -0.309106 -0.000003 9.617872 1.684974 1.580068 18.231986 -9.468049 0.000006 22.037354 7.501072 -0.000001 -0.000000 -0.000001 -4.570002 11.014872 -2.160839 0.296159 -1.308952 2.302288 -83.147219 19.732662 42.277225 0.000143 114.311419 -0.000080 2.728096 6.212224 3.604643 -2.464811 -1.573992 2.681902 -4.077516 -16.174544 -15.131707 5.287492 -15.850489 -0.724038 -2.646279 -1.527804 1.527813 -1.273762 0.137306 -2.094865 -1.994605 -1.151565 1.151581 0.000003 0.000003 0.000003 -9.108313 -0.517872 2.259784 0.010859 0.389413 -3.197055 0.070137 -0.987014 8.127146 0.097893 -1.164993 9.605707 -0.000000 -0.000003 0.000001 -9.532514 0.000023 -0.000013 0.018311 -0.505414 4.150991 0.127819 -1.329756 10.980562 0.176018 -1.557643 12.893266 0.000000 0.000001 0.000001 -9.103613 -0.043095 -1.865106 0.165539 -1.511211 12.502367 0.233880 -1.791704 14.873295 0.295213 -2.008298 16.722497 0.000005 0.000000 0.000000 -8.076702 -0.486724 -3.806302 0.416269 -2.374039 19.888683 0.321836 -2.094838 17.466339 0.409812 -2.356052 19.731623 0.000002 0.000001 0.000000 4.570398 11.014685 -2.160815 0.290048 0.798551 -1.612310 -70.475415 -5.814235 -33.122203 -0.000004 -124.387252 0.000018 24.187966 7.325386 0.911648 2.466099 -1.576209 2.681693 -3.717821 17.628203 14.011612 4.535373 15.200323 1.290785 2.647907 -1.528754 1.528758 -0.579455 1.575007 2.538723 1.998917 -1.154092 1.154070 -0.000002 0.000002 0.000003 9.109303 -0.518009 2.259895 0.012580 0.416891 -3.456701 0.000424 -0.076468 -0.000039 0.000428 -0.076480 0.633774 0.000000 -0.000001 0.000000 9.533416 0.000009 -0.000003 0.026207 0.601440 -4.990225 0.037127 0.715764 -5.942046 0.035026 0.694960 -5.768557 0.000002 0.000001 0.000002 9.104514 -0.042996 -1.865107 0.038027 0.724230 -6.012482 0.189527 1.607649 -13.448077 0.197578 1.640919 -13.731839 -0.000001 -0.000001 -0.000003 8.077806 -0.486903 -3.806304 0.534657 4.876125 -6.579668 0.409590 -1.721335 -20.242567 0.407009 2.336546 -19.761361 -0.000001 0.000001 0.000001 -8.207801 -6.751718 -1.599541 -15.078052 -2.240771 -1.178432 68.268465 -8.467202 -3.419495 -42.522517 -12.691437 6.833448 -0.644372 -0.000003 0.000001 -0.000000 -0.000000 0.000000 8.207799 -6.751720 -1.599549 -22.602230 -5.858063 -5.259496 70.702047 -9.667410 10.014790 -38.792958 -4.207042 -2.162375 -2.650801 -0.000002 0.000000 0.000000 0.000000 0.000000 
